<?xml version="1.0"?>
<svg xmlns="http://www.w3.org/2000/svg" xmlns:xlink="http://www.w3.org/1999/xlink" width="512" height="512" viewBox="0 0 512 512"><defs><linearGradient id="a" data-name="New Gradient Swatch 1" x1="-29.406" y1="453.406" x2="472.213" y2="-48.213" gradientUnits="userSpaceOnUse"><stop offset="0" stop-color="#003f8a"/><stop offset="0.518" stop-color="#00d7df"/><stop offset="1" stop-color="#006df0"/></linearGradient><linearGradient id="b" x1="18.594" y1="501.406" x2="520.213" y2="-0.213" xlink:href="#a"/><linearGradient id="c" x1="34.594" y1="517.406" x2="536.212" y2="15.787" xlink:href="#a"/><linearGradient id="d" x1="24.201" y1="507.012" x2="525.819" y2="5.394" xlink:href="#a"/></defs><g><circle cx="208" cy="216" r="16" fill="url(#a)"/><circle cx="304" cy="216" r="16" fill="url(#b)"/><path d="M408,367.29V174c0-3.04-.11-6.05-.33-8.92a117.443,117.443,0,0,0-26.71-66.22l37.34-11.2a8,8,0,0,0,.67-15.09l-160-64a8,8,0,0,0-5.7-.09l-176,64a8,8,0,0,0,.63,15.24l50.92,13.88A117.255,117.255,0,0,0,104,174V367.29a88.077,88.077,0,0,0-48,78.38V496a8,8,0,0,0,8,8H448a8,8,0,0,0,8-8V445.67A88.065,88.065,0,0,0,408,367.29ZM387.67,144.52a102.12,102.12,0,0,1,4.04,21.77c.19,2.48.29,5.07.29,7.71V361.03c-.36-.1-.72-.22-1.08-.32l-18.55-7.59a7.221,7.221,0,0,0-.82-.29l-25.34-7.3c-.13-.04-.27-.07-.41-.11L312,337.63V324.11c30.17-20.23,56-53.94,56-92.11V160c0-.24-.02-.49-.04-.73.02-.23.04-.48.04-.72V128a111.86,111.86,0,0,0-2.24-22.27A101.829,101.829,0,0,1,387.67,144.52ZM256,328c-18.19,0-42.4-11.16-61.66-28.42C164.46,272.8,160,245.75,160,232V198.64c11.7-2.27,37.3-7.55,63.2-14.95,36.46-10.42,59.94-20.85,71.83-32.08,9.4,16.32,28.9,43.29,56.97,47.74V232c0,13.75-4.46,40.8-34.34,67.58C298.4,316.84,274.19,328,256,328Zm40,5.38v6.87l-40,33.34-40-33.34v-6.87c13.85,6.81,27.82,10.62,40,10.62S282.15,340.19,296,333.38Zm56.04-174.11c-.02.24-.04.49-.04.73v23.07c-29.63-6.88-48.45-49.76-48.65-50.22a8,8,0,0,0-15.11,1.21c-.56,2.22-3.77,8.31-21.57,16.98-11.84,5.76-27.91,11.56-47.76,17.24-23.34,6.67-46.46,11.58-58.91,14.05V128a96.822,96.822,0,0,1,1.6-17.45l92.3,25.17a7.981,7.981,0,0,0,4.4-.06l91.64-27.49A96.438,96.438,0,0,1,352,128v30.55C352,158.79,352.02,159.04,352.04,159.27ZM106.41,78.91,255.86,24.56l135.9,54.36L255.9,119.68ZM120,174a101.314,101.314,0,0,1,25.78-67.77l.33.09A112.212,112.212,0,0,0,144,128V232c0,38.17,25.83,71.88,56,92.11v13.52l-33.8,7.79c-.26.07-.52.14-.78.23l-44.09,15c-.45.12-.89.26-1.33.38ZM248,488H120V456a8,8,0,0,0-16,0v32H72V445.67a72.03,72.03,0,0,1,53.67-69.62,5.011,5.011,0,0,0,.55-.17l23.87-8.12L248,451.68ZM167.69,361.77l2.5-.85,35.74-8.23,44.95,37.46a8,8,0,0,0,10.24,0l44.95-37.46,35.92,8.28,2.44.7L256,437.46ZM440,488H400V456a8,8,0,0,0-16,0v32H264V451.68l98.83-84.71,3.88,1.12,18.62,7.62a6.925,6.925,0,0,0,1,.34A72.03,72.03,0,0,1,440,445.67Z" fill="url(#c)"/><path d="M218.168,280.678C227.312,290.415,241.1,296,256,296s28.688-5.585,37.832-15.322a8,8,0,1,0-11.664-10.953C276.126,276.159,266.344,280,256,280s-20.126-3.841-26.168-10.275a8,8,0,1,0-11.664,10.953Z" fill="url(#d)"/></g></svg>
