<svg height="512" viewBox="0 0 512 512" width="512" xmlns="http://www.w3.org/2000/svg" xmlns:xlink="http://www.w3.org/1999/xlink"><linearGradient id="a" gradientUnits="userSpaceOnUse" x1="15.31" x2="498.266" y1="495.69" y2="12.734" data-name="New Gradient Swatch 1"><stop offset="0" stop-color="#003f8a"/><stop offset=".518" stop-color="#00d7df"/><stop offset="1" stop-color="#006df0"/></linearGradient><linearGradient id="b" x1="15.81" x2="498.766" xlink:href="#a" y1="496.19" y2="13.234"/><linearGradient id="d" x1="5.81" x2="488.766" xlink:href="#a" y1="486.19" y2="3.234"/><linearGradient id="e" x1="29.81" x2="512.766" xlink:href="#a" y1="510.19" y2="27.234"/><g><path d="m413.46 401.14-74.83-74.83a32.012 32.012 0 0 0 -45.26 0l-15.03 15.03-47.65 47.66a15.984 15.984 0 0 1 -15.9 4.02 144.324 144.324 0 0 1 -96.81-96.81 16.006 16.006 0 0 1 4.02-15.9l47.66-47.65 15.03-15.03a32.012 32.012 0 0 0 0-45.26l-74.83-74.83a32.145 32.145 0 0 0 -24.45-9.34 31.759 31.759 0 0 0 -23.04 11.82c-4.08 5.09-8 10.41-11.67 15.8v.01a248.034 248.034 0 0 0 344.47 344.47.01.01 0 0 0 .01-.01c5.39-3.65 10.71-7.58 15.8-11.66a31.759 31.759 0 0 0 11.82-23.04 32.094 32.094 0 0 0 -9.34-24.45zm-338.6-291.12a15.55 15.55 0 0 1 11.43-5.85 16.107 16.107 0 0 1 12.25 4.69l74.83 74.83a15.982 15.982 0 0 1 0 22.62l-9.37 9.38-96.28-96.28c2.3-3.19 4.69-6.33 7.14-9.39zm181.14 376.98a232.054 232.054 0 0 1 -197.35-354.04l29.58 29.58 64.46 64.46-42 42a31.992 31.992 0 0 0 -8.05 31.78 160.363 160.363 0 0 0 107.58 107.58 31.992 31.992 0 0 0 31.78-8.05l42-42 94.04 94.04a230.809 230.809 0 0 1 -122.04 34.65zm150.83-62.28a15.547 15.547 0 0 1 -5.85 11.42c-3.06 2.45-6.2 4.84-9.39 7.14l-96.28-96.28 9.38-9.37a15.982 15.982 0 0 1 22.62 0l74.83 74.83a16.1 16.1 0 0 1 4.69 12.26z" fill="url(#a)"/><path d="m485.17 161.09a112.064 112.064 0 0 0 -134.26-134.26 248.279 248.279 0 0 0 -238.95 27.27 8.012 8.012 0 0 0 -1.01 12.17l22.98 22.98a8.013 8.013 0 0 0 10.14.97 198.99 198.99 0 0 1 111.93-34.22 201.675 201.675 0 0 1 38.06 3.63 112.012 112.012 0 0 0 158.31 158.31 201.675 201.675 0 0 1 3.63 38.06 198.99 198.99 0 0 1 -34.22 111.93 8.013 8.013 0 0 0 .97 10.14l22.98 22.98a8.043 8.043 0 0 0 5.66 2.34q.33 0 .66-.03a7.976 7.976 0 0 0 5.85-3.32 248.279 248.279 0 0 0 27.27-238.95zm-229.17-121.09a214.877 214.877 0 0 0 -115.35 33.34l-11.57-11.58a232.545 232.545 0 0 1 198.14-26.62 111.028 111.028 0 0 0 -18.52 11.34 216.749 216.749 0 0 0 -52.7-6.48zm194.58 156.45a95.994 95.994 0 1 1 -98.37-153.49 97.147 97.147 0 0 1 23.79-2.96 96.111 96.111 0 0 1 93.04 119.78 95.083 95.083 0 0 1 -18.46 36.67zm-.34 186.47-11.58-11.57a216.609 216.609 0 0 0 26.86-168.05 110.708 110.708 0 0 0 11.34-18.53 232.567 232.567 0 0 1 -26.62 198.15z" fill="url(#b)"/><path d="m376 48a88 88 0 1 0 88 88 88.1 88.1 0 0 0 -88-88zm0 160a72 72 0 1 1 72-72 72.083 72.083 0 0 1 -72 72z" fill="url(#b)"/><path d="m352 144v8h16a8 8 0 0 1 0 16h-24a8 8 0 0 1 -8-8v-24a8 8 0 0 1 8-8h16v-8h-16a8 8 0 0 1 0-16h24a8 8 0 0 1 8 8v24a8 8 0 0 1 -8 8z" fill="url(#d)"/><path d="m424 112v48a8 8 0 0 1 -16 0v-16h-16a8 8 0 0 1 -8-8v-24a8 8 0 0 1 16 0v16h8v-16a8 8 0 0 1 16 0z" fill="url(#e)"/></g></svg>