<?xml version="1.0"?>
<svg xmlns="http://www.w3.org/2000/svg" xmlns:xlink="http://www.w3.org/1999/xlink" width="512" height="512" viewBox="0 0 512 512"><defs><linearGradient id="a" data-name="New Gradient Swatch 1" x1="-138.298" y1="350.798" x2="389.22" y2="-176.72" gradientUnits="userSpaceOnUse"><stop offset="0" stop-color="#003f8a"/><stop offset="0.518" stop-color="#00d7df"/><stop offset="1" stop-color="#006df0"/></linearGradient><linearGradient id="b" x1="-118.294" y1="370.794" x2="409.224" y2="-156.724" xlink:href="#a"/><linearGradient id="c" x1="-120.544" y1="368.544" x2="406.974" y2="-158.974" xlink:href="#a"/><linearGradient id="d" x1="27.456" y1="516.544" x2="554.974" y2="-10.974" xlink:href="#a"/></defs><g><path d="M73,144h7a8,8,0,0,0,0-16H73a8,8,0,0,0,0,16Z" fill="url(#a)"/><path d="M113,144h7a8,8,0,0,0,0-16h-7a8,8,0,0,0,0,16Z" fill="url(#b)"/><circle cx="96" cy="152" r="8" fill="url(#c)"/><path d="M496,216h-4.31A31.705,31.705,0,0,0,496,200V160a8,8,0,0,0-8-8V104a8,8,0,0,0-16,0v48h-8V128a8,8,0,0,0-16,0v24h-8a8,8,0,0,0-8,8v40a31.705,31.705,0,0,0,4.31,16H358.25l-4-16H400a24.032,24.032,0,0,0,24-24V80a24.032,24.032,0,0,0-24-24H224a24.032,24.032,0,0,0-24,24v96a24.032,24.032,0,0,0,24,24h45.75l-4,16H199.71A28.043,28.043,0,0,0,172,192H152V168h8a8,8,0,0,0,0-16h-8v-3.06l11.58-5.78a8.005,8.005,0,1,0-7.16-14.32L152,131.06V96a8.009,8.009,0,0,0-12.44-6.66L119.8,102.52c-15.66-8.64-31.94-8.64-47.6,0L52.44,89.34A8.009,8.009,0,0,0,40,96v35.06l-4.42-2.22a8.005,8.005,0,1,0-7.16,14.32L40,148.94V152H24a8,8,0,0,0,0,16H40v48H16a8,8,0,0,0-8,8v32a8,8,0,0,0,8,8H38.98L16.06,455.05A8,8,0,0,0,24,464H48a8,8,0,0,0,7.9-6.74L86.82,264H160v4a28.031,28.031,0,0,0,28,28h4a8,8,0,0,0,8-8V264H425.18L456.1,457.26A8,8,0,0,0,464,464h24a8,8,0,0,0,7.94-8.95L473.02,264H496a8,8,0,0,0,8-8V224A8,8,0,0,0,496,216ZM56,110.95l11.56,7.71a8.013,8.013,0,0,0,8.88,0c13.34-8.9,25.78-8.9,39.12,0a8.013,8.013,0,0,0,8.88,0L136,110.95V216h-8V192a8,8,0,0,0-16,0v24H80V192a8,8,0,0,0-16,0v24H56ZM41.18,448H33.02L55.1,264H70.62ZM160,248H24V232H160Zm24,31.31A12.014,12.014,0,0,1,176,268V224a8,8,0,0,0-8-8H152v-8h20a12.01,12.01,0,0,1,12,12ZM448,168h32v32a16,16,0,0,1-32,0ZM216,80a8.011,8.011,0,0,1,8-8H400a8.011,8.011,0,0,1,8,8v80H216Zm8,104a8.011,8.011,0,0,1-8-8H408a8.011,8.011,0,0,1-8,8Zm117.75,32h-59.5l4-16h51.5ZM478.98,448h-8.16L441.38,264H456.9ZM488,248H200V232H488Z" fill="url(#d)"/></g></svg>
