<?xml version="1.0"?>
<svg xmlns="http://www.w3.org/2000/svg" xmlns:xlink="http://www.w3.org/1999/xlink" width="512" height="512" viewBox="0 0 512 512"><defs><linearGradient id="a" data-name="New Gradient Swatch 1" x1="38.314" y1="513.686" x2="546.73" y2="5.27" gradientUnits="userSpaceOnUse"><stop offset="0" stop-color="#003f8a"/><stop offset="0.518" stop-color="#00d7df"/><stop offset="1" stop-color="#006df0"/></linearGradient><linearGradient id="b" x1="-21.686" y1="453.686" x2="486.73" y2="-54.73" xlink:href="#a"/><linearGradient id="c" x1="-5.686" y1="469.686" x2="502.73" y2="-38.73" xlink:href="#a"/><linearGradient id="d" x1="10.314" y1="485.686" x2="518.73" y2="-22.73" xlink:href="#a"/><linearGradient id="e" x1="26.314" y1="501.686" x2="534.73" y2="-6.73" xlink:href="#a"/><linearGradient id="f" x1="-37.686" y1="437.686" x2="470.73" y2="-70.73" xlink:href="#a"/><linearGradient id="g" x1="82.314" y1="557.686" x2="590.73" y2="49.27" xlink:href="#a"/><linearGradient id="h" x1="98.314" y1="573.686" x2="606.73" y2="65.27" xlink:href="#a"/><linearGradient id="i" x1="114.314" y1="589.686" x2="622.73" y2="81.27" xlink:href="#a"/><linearGradient id="j" x1="130.314" y1="605.686" x2="638.73" y2="97.27" xlink:href="#a"/><linearGradient id="k" x1="66.314" y1="541.686" x2="574.73" y2="33.27" xlink:href="#a"/></defs><g><path d="M496,112H472a8.011,8.011,0,0,0-5.65-7.65,359.615,359.615,0,0,0-118-16.14,103.968,103.968,0,0,0-184.7,0,359.845,359.845,0,0,0-118,16.14A8.011,8.011,0,0,0,40,112H16a8,8,0,0,0-8,8V472a8,8,0,0,0,8,8H496a8,8,0,0,0,8-8V120A8,8,0,0,0,496,112ZM343.63,128h-31.8c-.95-23.87-6.08-46.16-14.73-63.46a95.9,95.9,0,0,0-4.99-8.79A88.179,88.179,0,0,1,343.63,128Zm0,16a88.179,88.179,0,0,1-51.52,72.25,95.9,95.9,0,0,0,4.99-8.79c8.65-17.3,13.78-39.59,14.73-63.46ZM264,50.02c6.8,3.36,13.37,10.84,18.79,21.68,7.58,15.16,12.12,34.92,13.03,56.3H264ZM264,144h31.82c-.91,21.38-5.45,41.14-13.03,56.3-5.42,10.84-11.99,18.32-18.79,21.68Zm0,95.7a104.025,104.025,0,0,0,90.98-135.64A343.827,343.827,0,0,1,456,117.96V429.33a354.141,354.141,0,0,0-192,.01ZM248,50.02V128H216.18c.91-21.38,5.45-41.14,13.03-56.3C234.63,60.86,241.2,53.38,248,50.02ZM248,144v77.98c-6.8-3.36-13.37-10.84-18.79-21.68-7.58-15.16-12.12-34.92-13.03-56.3ZM219.89,55.75a95.9,95.9,0,0,0-4.99,8.79c-8.65,17.3-13.78,39.59-14.73,63.46h-31.8A88.179,88.179,0,0,1,219.89,55.75ZM200.17,144c.95,23.87,6.08,46.16,14.73,63.46a95.9,95.9,0,0,0,4.99,8.79A88.179,88.179,0,0,1,168.37,144ZM56,117.96a343.848,343.848,0,0,1,101.03-13.9A104,104,0,0,0,248,239.7V429.34a354.141,354.141,0,0,0-192-.01ZM488,464H24V128H40V440a8,8,0,0,0,10.35,7.65c67.45-20.76,135.85-20.76,203.3,0a8.01,8.01,0,0,0,4.7,0c67.45-20.76,135.85-20.76,203.3,0A8.209,8.209,0,0,0,464,448a7.994,7.994,0,0,0,8-8V128h16Z" fill="url(#a)"/><path d="M96,288H208a8,8,0,0,0,0-16H96a8,8,0,0,0,0,16Z" fill="url(#b)"/><path d="M80,320H224a8,8,0,0,0,0-16H80a8,8,0,0,0,0,16Z" fill="url(#c)"/><path d="M208,336H96a8,8,0,0,0,0,16H208a8,8,0,0,0,0-16Z" fill="url(#d)"/><path d="M184,368H120a8,8,0,0,0,0,16h64a8,8,0,0,0,0-16Z" fill="url(#e)"/><path d="M120,256h64a8,8,0,0,0,0-16H120a8,8,0,0,0,0,16Z" fill="url(#f)"/><path d="M296,280a8,8,0,0,0,8,8H416a8,8,0,0,0,0-16H304A8,8,0,0,0,296,280Z" fill="url(#g)"/><path d="M280,312a8,8,0,0,0,8,8H432a8,8,0,0,0,0-16H288A8,8,0,0,0,280,312Z" fill="url(#h)"/><path d="M416,336H304a8,8,0,0,0,0,16H416a8,8,0,0,0,0-16Z" fill="url(#i)"/><path d="M392,368H328a8,8,0,0,0,0,16h64a8,8,0,0,0,0-16Z" fill="url(#j)"/><path d="M320,248a8,8,0,0,0,8,8h64a8,8,0,0,0,0-16H328A8,8,0,0,0,320,248Z" fill="url(#k)"/></g></svg>
