<svg height="496pt" viewBox="0 -4 496 496" width="496pt" xmlns="http://www.w3.org/2000/svg" xmlns:xlink="http://www.w3.org/1999/xlink"><linearGradient id="a"><stop offset="0" stop-color="#003f8a"/><stop offset=".518" stop-color="#00d7df"/><stop offset="1" stop-color="#006df0"/></linearGradient><linearGradient id="b" gradientUnits="userSpaceOnUse" x1="-136.288" x2="359.192" xlink:href="#a" y1="352.288" y2="-143.192"/><linearGradient id="c" gradientUnits="userSpaceOnUse" x1="-24.288" x2="471.192" xlink:href="#a" y1="464.288" y2="-31.192"/><linearGradient id="d" gradientUnits="userSpaceOnUse" x1="-80.288" x2="415.192" xlink:href="#a" y1="408.288" y2="-87.192"/><linearGradient id="e" gradientUnits="userSpaceOnUse" x1="-5.048" x2="490.432" xlink:href="#a" y1="483.528" y2="-11.952"/><linearGradient id="f" gradientUnits="userSpaceOnUse" x1="-8.176" x2="487.296" xlink:href="#a" y1="480.392" y2="-15.088"/><path d="m88 152h48c4.417969 0 8-3.582031 8-8v-80c0-4.417969-3.582031-8-8-8h-48c-4.417969 0-8 3.582031-8 8v80c0 4.417969 3.582031 8 8 8zm40-16h-32v-24h32zm-32-64h32v24h-32zm0 0" fill="url(#b)"/><path d="m136 280h-48c-4.417969 0-8 3.582031-8 8v80c0 4.417969 3.582031 8 8 8h48c4.417969 0 8-3.582031 8-8v-80c0-4.417969-3.582031-8-8-8zm-40 16h32v24h-32zm32 64h-32v-24h32zm0 0" fill="url(#c)"/><path d="m112 240c13.253906 0 24-10.746094 24-24s-10.746094-24-24-24-24 10.746094-24 24 10.746094 24 24 24zm0-32c4.417969 0 8 3.582031 8 8s-3.582031 8-8 8-8-3.582031-8-8 3.582031-8 8-8zm0 0" fill="url(#d)"/><path d="m112 272c30.929688 0 56-25.070312 56-56s-25.070312-56-56-56-56 25.070312-56 56c.035156 30.914062 25.085938 55.964844 56 56zm0-96c22.089844 0 40 17.910156 40 40s-17.910156 40-40 40-40-17.910156-40-40c.027344-22.082031 17.917969-39.972656 40-40zm0 0" fill="url(#d)"/><path d="m472 0h-448c-13.253906 0-24 10.746094-24 24v384c0 13.253906 10.746094 24 24 24h377.503906l14.191406 37.160156c2.699219 7.273438 8.210938 13.152344 15.289063 16.324219 7.082031 3.167969 15.136719 3.359375 22.359375.53125 15.003906-5.871094 22.46875-22.738281 16.726562-37.792969l-6.117187-16.222656h8.046875c13.253906 0 24-10.746094 24-24v-384c0-13.253906-10.746094-24-24-24zm-296 384h-128v-336h128zm16-336h256v336h-2.167969l-46.34375-122.824219c-.039062-.105469-.136719-.183593-.183593-.289062-.332032-.792969-.789063-1.523438-1.359376-2.167969-.074218-.085938-.128906-.191406-.210937-.269531l-.078125-.105469-26.34375-26.34375c-4.578125-4.574219-11.457031-5.941406-17.433594-3.46875-5.980468 2.476562-9.878906 8.308594-9.878906 14.78125v36.6875c.015625.875.179688 1.746094.480469 2.566406 0 .097656 0 .195313.046875.289063l38.671875 101.144531h-191.199219zm222.441406 373.039062-.097656-.246093-12.160156-31.832031-.039063-.121094-39.855469-104.335938 25.101563-10.039062 45.410156 120.542968.0625.167969 12.257813 32.558594-24.402344 9.746094zm-54.441406-152.855468v-24.871094l17.761719 17.757812zm87.585938 202.90625h-.050782c-3.203125 1.261718-6.78125 1.179687-9.917968-.234375-3.222657-1.425781-5.734376-4.097657-6.960938-7.398438l-4.257812-11.03125 24.378906-9.753906 4.3125 11.25c2.628906 6.808594-.71875 14.46875-7.503906 17.167969zm32.414062-63.089844c0 4.417969-3.582031 8-8 8h-14.089844l-6.214844-16.472656c7.199219-1.707032 12.285157-8.128906 12.304688-15.527344v-336c0-8.835938-7.164062-16-16-16h-400c-8.835938 0-16 7.164062-16 16v336c0 8.835938 7.164062 16 16 16h341.28125l6.109375 16h-371.390625c-4.417969 0-8-3.582031-8-8v-384c0-4.417969 3.582031-8 8-8h448c4.417969 0 8 3.582031 8 8zm0 0" fill="url(#e)"/><path d="m352 192v24c0 4.417969 3.582031 8 8 8s8-3.582031 8-8v-24c0-17.671875-14.328125-32-32-32s-32 14.328125-32 32v40c0 4.417969-3.582031 8-8 8s-8-3.582031-8-8v-76c0-19.882812-16.117188-36-36-36s-36 16.117188-36 36v60c0 4.417969 3.582031 8 8 8s8-3.582031 8-8v-60c0-11.046875 8.953125-20 20-20s20 8.953125 20 20v76c0 13.253906 10.746094 24 24 24s24-10.746094 24-24v-40c0-8.835938 7.164062-16 16-16s16 7.164062 16 16zm0 0" fill="url(#f)"/></svg>