<?xml version="1.0"?>
<svg xmlns="http://www.w3.org/2000/svg" xmlns:xlink="http://www.w3.org/1999/xlink" width="512" height="512" viewBox="0 0 512 512"><defs><linearGradient id="a" data-name="New Gradient Swatch 1" x1="-17.742" y1="457.772" x2="470.018" y2="-29.988" gradientUnits="userSpaceOnUse"><stop offset="0" stop-color="#003f8a"/><stop offset="0.518" stop-color="#00d7df"/><stop offset="1" stop-color="#006df0"/></linearGradient><linearGradient id="b" x1="60.875" y1="536.389" x2="548.635" y2="48.629" xlink:href="#a"/><linearGradient id="c" x1="96.243" y1="571.757" x2="584.003" y2="83.997" xlink:href="#a"/></defs><g><path d="M286,258.178A80.212,80.212,0,1,0,256,264,79.819,79.819,0,0,0,286,258.178Zm-70-24.215a63.722,63.722,0,1,1,16,9.385A63.731,63.731,0,0,1,216,233.963Z" fill="url(#a)"/><path d="M503.59,493.47l-32-96A8,8,0,0,0,464,392H317.16C366.91,332.83,432,243.95,432,184,432,86.95,353.05,8,256,8S80,86.95,80,184c0,59.95,65.09,148.83,114.84,208H48a8,8,0,0,0-7.59,5.47l-32,96A8,8,0,0,0,16,504H496a8,8,0,0,0,7.59-10.53ZM96,184C96,95.78,167.78,24,256,24S416,95.78,416,184c0,78.99-130.82,221.62-160,252.44C226.82,405.62,96,262.99,96,184ZM282.05,432H434.23l10.67,32H405.77l-6.18-18.53A8,8,0,0,0,392,440H274.66C276.89,437.6,279.37,434.93,282.05,432Zm-44.71,8H163.1l2.67-8h64.18C232.63,434.93,235.11,437.6,237.34,440ZM27.1,488l26.67-80H207.29a8.923,8.923,0,0,0,1.16-.09q3.645,4.2,7.1,8.09H160a8,8,0,0,0-7.59,5.47l-8,24A8,8,0,0,0,152,456H386.23l6.18,18.53A8,8,0,0,0,400,480h56a8,8,0,0,0,7.59-10.53l-16-48A8,8,0,0,0,440,416H296.45q3.405-3.855,7.03-8.01c.08,0,.15.01.23.01H458.23l26.67,80Z" fill="url(#b)"/><path d="M368,464H123.1l12.49-37.47A8,8,0,0,0,128,416H72a8,8,0,0,0-7.589,5.47l-16,48A8,8,0,0,0,56,480H368a8,8,0,0,0,0-16ZM77.766,432H116.9l-10.666,32H67.1Z" fill="url(#c)"/></g></svg>
