<?xml version="1.0"?>
<svg xmlns="http://www.w3.org/2000/svg" xmlns:xlink="http://www.w3.org/1999/xlink" width="512" height="512" viewBox="0 0 512 512"><defs><linearGradient id="a" data-name="New Gradient Swatch 1" x1="-8.126" y1="504.126" x2="507.792" y2="-11.792" gradientUnits="userSpaceOnUse"><stop offset="0" stop-color="#003f8a"/><stop offset="0.518" stop-color="#00d7df"/><stop offset="1" stop-color="#006df0"/></linearGradient><linearGradient id="b" x1="29.874" y1="542.126" x2="545.792" y2="26.208" xlink:href="#a"/><linearGradient id="c" x1="25.874" y1="538.126" x2="541.792" y2="22.208" xlink:href="#a"/><linearGradient id="d" x1="49.874" y1="562.126" x2="565.792" y2="46.208" xlink:href="#a"/></defs><g><path d="M476,56H408V24a8,8,0,0,0-8-8H112a8,8,0,0,0-8,8V56H36A28.031,28.031,0,0,0,8,84V396a28.031,28.031,0,0,0,28,28H196.9l-10.67,32H168a8,8,0,0,0-8,8v16H104a8,8,0,0,0,0,16H408a8,8,0,0,0,0-16H352V464a8,8,0,0,0-8-8H325.77L315.1,424H476a28.031,28.031,0,0,0,28-28V84A28.031,28.031,0,0,0,476,56ZM120,32H392V59.51L256,142.62,120,59.51Zm201.59,89.29L392,78.26V224H372.94ZM355.06,224H156.94l47.17-94.33,47.72,29.16a8.016,8.016,0,0,0,8.34,0l47.72-29.16ZM120,78.26l70.41,43.03L139.06,224H120ZM336,472v8H176v-8ZM203.1,456l10.67-32h84.46l10.67,32ZM488,396a12.01,12.01,0,0,1-12,12H36a12.01,12.01,0,0,1-12-12V360H488Zm0-52H232V256a8,8,0,0,0-16,0v88H24V84A12.01,12.01,0,0,1,36,72h68V232a8,8,0,0,0,8,8H248v48a8,8,0,0,0,16,0V240H400a8,8,0,0,0,8-8V72h68a12.01,12.01,0,0,1,12,12Z" fill="url(#a)"/><path d="M256,328a8,8,0,0,0,8-8v-8a8,8,0,0,0-16,0v8A8,8,0,0,0,256,328Z" fill="url(#b)"/><path d="M288,304a8,8,0,0,0,8-8V256a8,8,0,0,0-16,0v40A8,8,0,0,0,288,304Z" fill="url(#c)"/><path d="M288,336a8,8,0,0,0,8-8v-8a8,8,0,0,0-16,0v8A8,8,0,0,0,288,336Z" fill="url(#d)"/></g></svg>
