<?xml version="1.0"?>
<svg xmlns="http://www.w3.org/2000/svg" xmlns:xlink="http://www.w3.org/1999/xlink" width="512" height="512" viewBox="0 0 512 512"><defs><linearGradient id="a" x1="11.421" y1="492.579" x2="486.398" y2="17.602" gradientUnits="userSpaceOnUse"><stop offset="0" stop-color="#003f8a"/><stop offset="0.518" stop-color="#00d7df"/><stop offset="1" stop-color="#006df0"/></linearGradient><linearGradient id="b" x1="-18.579" y1="462.579" x2="456.398" y2="-12.398" xlink:href="#a"/><linearGradient id="c" x1="9.421" y1="490.579" x2="484.398" y2="15.602" xlink:href="#a"/><linearGradient id="d" x1="-70.579" y1="410.579" x2="404.398" y2="-64.398" xlink:href="#a"/><linearGradient id="e" x1="-92.579" y1="388.579" x2="382.398" y2="-86.398" xlink:href="#a"/><linearGradient id="f" x1="-46.579" y1="434.578" x2="428.397" y2="-40.398" xlink:href="#a"/><linearGradient id="g" x1="-22.579" y1="458.579" x2="452.398" y2="-16.398" xlink:href="#a"/><linearGradient id="h" x1="-32.579" y1="448.579" x2="442.398" y2="-26.398" xlink:href="#a"/><linearGradient id="i" x1="47.421" y1="528.579" x2="522.398" y2="53.602" xlink:href="#a"/><linearGradient id="j" x1="-36.579" y1="444.579" x2="438.398" y2="-30.398" xlink:href="#a"/><linearGradient id="k" x1="-12.579" y1="468.579" x2="462.398" y2="-6.398" xlink:href="#a"/><linearGradient id="l" x1="-10.579" y1="470.579" x2="464.398" y2="-4.398" xlink:href="#a"/><linearGradient id="m" x1="1.421" y1="482.579" x2="476.398" y2="7.602" xlink:href="#a"/><linearGradient id="n" x1="13.421" y1="494.579" x2="488.398" y2="19.602" xlink:href="#a"/><linearGradient id="o" x1="25.421" y1="506.579" x2="500.398" y2="31.602" xlink:href="#a"/><linearGradient id="p" x1="37.421" y1="518.579" x2="512.398" y2="43.602" xlink:href="#a"/><linearGradient id="q" x1="49.421" y1="530.579" x2="524.398" y2="55.602" xlink:href="#a"/></defs><g><path d="M464,96H384V56a8,8,0,0,0-8-8H136a8,8,0,0,0-8,8V96H48A40.04,40.04,0,0,0,8,136V360a40.04,40.04,0,0,0,40,40H204.68l-11.33,32H160a8,8,0,0,0-8,8v24a8,8,0,0,0,8,8H352a8,8,0,0,0,8-8V440a8,8,0,0,0-8-8H317.65l-11.33-32H464a40.04,40.04,0,0,0,40-40V136A40.04,40.04,0,0,0,464,96ZM144,64H368V336H144ZM24,136a24.032,24.032,0,0,1,24-24h80V336H24ZM344,448v8H168v-8ZM210.32,432l11.33-32h67.7l11.33,32ZM488,360a24.032,24.032,0,0,1-24,24H48a24.032,24.032,0,0,1-24-24v-8H488Zm0-24H384V112h80a24.032,24.032,0,0,1,24,24Z" fill="url(#a)"/><path d="M104,360H48a8,8,0,0,0,0,16h56a8,8,0,0,0,0-16Z" fill="url(#b)"/><path d="M136,360h-8a8,8,0,0,0,0,16h8a8,8,0,0,0,0-16Z" fill="url(#c)"/><path d="M224,136h16a8,8,0,0,0,0-16h-8v-8a8,8,0,0,0,0-16h8a8,8,0,0,0,0-16H224a8,8,0,0,0-8,8v40A8,8,0,0,0,224,136Z" fill="url(#d)"/><path d="M176,136a8,8,0,0,0,8-8V116.883l9.14,15.233A8,8,0,0,0,208,128V88a8,8,0,0,0-16,0V99.117l-9.14-15.233A8,8,0,0,0,168,88v40A8,8,0,0,0,176,136Z" fill="url(#e)"/><path d="M304,88v40a8,8,0,0,1-13.66,5.66L280,123.31l-10.34,10.35A8,8,0,0,1,256,128V88a8,8,0,0,1,16,0v20.69l2.34-2.35a8.015,8.015,0,0,1,11.32,0l2.34,2.35V88a8,8,0,0,1,16,0Z" fill="url(#f)"/><path d="M344,112v16a8,8,0,0,1-8,8H320a8,8,0,0,1,0-16h8v-3.06l-11.58-5.78A8.011,8.011,0,0,1,312,104V88a8,8,0,0,1,8-8h16a8,8,0,0,1,0,16h-8v3.06l11.58,5.78A8.011,8.011,0,0,1,344,112Z" fill="url(#g)"/><path d="M168,168H344a8,8,0,0,0,0-16H168a8,8,0,0,0,0,16Z" fill="url(#h)"/><path d="M168,328H344a8,8,0,0,0,0-16H168a8,8,0,0,0,0,16Z" fill="url(#i)"/><path d="M168,248h48a8,8,0,0,0,8-8V192a8,8,0,0,0-8-8H168a8,8,0,0,0-8,8v48A8,8,0,0,0,168,248Zm8-48h32v32H176Z" fill="url(#j)"/><path d="M168,272h48a8,8,0,0,0,0-16H168a8,8,0,0,0,0,16Z" fill="url(#k)"/><path d="M168,296h8a8,8,0,0,0,0-16h-8a8,8,0,0,0,0,16Z" fill="url(#l)"/><path d="M344,184H240a8,8,0,0,0,0,16H344a8,8,0,0,0,0-16Z" fill="url(#m)"/><path d="M344,208H240a8,8,0,0,0,0,16H344a8,8,0,0,0,0-16Z" fill="url(#n)"/><path d="M344,232H240a8,8,0,0,0,0,16H344a8,8,0,0,0,0-16Z" fill="url(#o)"/><path d="M344,256H240a8,8,0,0,0,0,16H344a8,8,0,0,0,0-16Z" fill="url(#p)"/><path d="M344,280H240a8,8,0,0,0,0,16H344a8,8,0,0,0,0-16Z" fill="url(#q)"/></g></svg>
