<?xml version="1.0"?>
<svg xmlns="http://www.w3.org/2000/svg" xmlns:xlink="http://www.w3.org/1999/xlink" width="512" height="512" viewBox="0 0 512 512"><defs><linearGradient id="a" data-name="New Gradient Swatch 1" x1="-136.653" y1="344.653" x2="389.306" y2="-181.306" gradientUnits="userSpaceOnUse"><stop offset="0" stop-color="#003f8a"/><stop offset="0.518" stop-color="#00d7df"/><stop offset="1" stop-color="#006df0"/></linearGradient><linearGradient id="b" x1="-124.653" y1="356.653" x2="401.306" y2="-169.306" xlink:href="#a"/><linearGradient id="c" x1="-112.653" y1="368.653" x2="413.306" y2="-157.306" xlink:href="#a"/><linearGradient id="d" x1="73.347" y1="554.653" x2="599.306" y2="28.694" xlink:href="#a"/><linearGradient id="e" x1="35.347" y1="516.653" x2="561.306" y2="-9.306" xlink:href="#a"/><linearGradient id="f" x1="-0.653" y1="480.653" x2="525.306" y2="-45.306" xlink:href="#a"/><linearGradient id="g" x1="91.347" y1="572.653" x2="617.306" y2="46.694" xlink:href="#a"/><linearGradient id="h" x1="131.347" y1="612.653" x2="657.306" y2="86.694" xlink:href="#a"/><linearGradient id="i" x1="159.347" y1="640.653" x2="685.306" y2="114.694" xlink:href="#a"/><linearGradient id="j" x1="155.347" y1="636.653" x2="681.306" y2="110.694" xlink:href="#a"/><linearGradient id="k" x1="181.347" y1="662.653" x2="707.306" y2="136.694" xlink:href="#a"/><linearGradient id="l" x1="55.347" y1="536.653" x2="581.306" y2="10.694" xlink:href="#a"/></defs><g><circle cx="48" cy="160" r="8" fill="url(#a)"/><circle cx="72" cy="160" r="8" fill="url(#b)"/><circle cx="96" cy="160" r="8" fill="url(#c)"/><path d="M440,176a8,8,0,0,0-8,8v8a8,8,0,0,0,16,0v-8A8,8,0,0,0,440,176Z" fill="url(#d)"/><path d="M472,16H248a32.042,32.042,0,0,0-32,32v80H40A32.042,32.042,0,0,0,8,160V464a32.042,32.042,0,0,0,32,32H440a32.042,32.042,0,0,0,32-32V240a32.042,32.042,0,0,0,32-32V48A32.042,32.042,0,0,0,472,16ZM220.31,224A32.01,32.01,0,0,0,248,240v40a8,8,0,0,0,13.21,6.07L280,269.97V384H224V368a32.042,32.042,0,0,0-32-32h-2.87A31.92,31.92,0,0,0,200,312V296a32,32,0,0,0-64,0v16a31.92,31.92,0,0,0,10.87,24H144a32.042,32.042,0,0,0-32,32v16H56V224ZM192,352a16.021,16.021,0,0,1,16,16v16H128V368a16.021,16.021,0,0,1,16-16Zm-40-40V296a16,16,0,0,1,32,0v16a16,16,0,0,1-32,0ZM24,160a16.021,16.021,0,0,1,16-16H216v32H24ZM456,464a16.021,16.021,0,0,1-16,16H40a16.021,16.021,0,0,1-16-16V192H216v16H48a8,8,0,0,0-8,8V392a8,8,0,0,0,8,8H288a8,8,0,0,0,8-8V256.25L314.96,240H456Zm32-256a16.021,16.021,0,0,1-16,16H312a7.975,7.975,0,0,0-5.21,1.93L264,262.61V232a8,8,0,0,0-8-8h-8a16.021,16.021,0,0,1-16-16V48a16.021,16.021,0,0,1,16-16H472a16.021,16.021,0,0,1,16,16Z" fill="url(#e)"/><path d="M450.73,80.48l-88-32a8,8,0,0,0-5.46,0l-88,32a8,8,0,0,0,0,15.04L296,105.24V152a8.006,8.006,0,0,0,5.03,7.43c27.56,11.02,43.26,16.53,58.97,16.53s31.41-5.51,58.97-16.53A8.006,8.006,0,0,0,424,152V105.24l8-2.91V160a8,8,0,0,0,16,0V96.51l2.73-.99a8,8,0,0,0,0-15.04ZM408,146.58c-45.14,17.94-50.86,17.94-96,0V111.06l45.27,16.46a8,8,0,0,0,5.46,0L408,111.06Zm-48-35.09L295.41,88,360,64.51,424.59,88Z" fill="url(#f)"/><path d="M312,264v48a8,8,0,0,0,8,8H432a8,8,0,0,0,8-8V264a8,8,0,0,0-8-8H320A8,8,0,0,0,312,264Zm16,8h96v32H328Z" fill="url(#g)"/><path d="M432,336H320a8,8,0,0,0-8,8v48a8,8,0,0,0,8,8H432a8,8,0,0,0,8-8V344A8,8,0,0,0,432,336Zm-8,48H328V352h96Z" fill="url(#h)"/><path d="M432,416H320a8,8,0,0,0,0,16H432a8,8,0,0,0,0-16Z" fill="url(#i)"/><path d="M368,440H320a8,8,0,0,0,0,16h48a8,8,0,0,0,0-16Z" fill="url(#j)"/><path d="M400,440h-8a8,8,0,0,0,0,16h8a8,8,0,0,0,0-16Z" fill="url(#k)"/><path d="M288,416H95.931a7.993,7.993,0,0,0-15.862,0H48a8,8,0,0,0,0,16H80a8,8,0,0,0,16,0H288a8,8,0,0,0,0-16Z" fill="url(#l)"/></g></svg>
