<svg height="512" viewBox="0 0 512 512" width="512" xmlns="http://www.w3.org/2000/svg" xmlns:xlink="http://www.w3.org/1999/xlink"><linearGradient id="a" gradientUnits="userSpaceOnUse" x1="24.593" x2="491.44" y1="479.407" y2="12.56" data-name="New Gradient Swatch 1"><stop offset="0" stop-color="#003f8a"/><stop offset=".518" stop-color="#00d7df"/><stop offset="1" stop-color="#006df0"/></linearGradient><linearGradient id="b" x1="28.593" x2="495.44" xlink:href="#a" y1="483.407" y2="16.56"/><g><path d="m413.46 394.14-74.83-74.83a32.012 32.012 0 0 0 -45.26 0l-15.03 15.03-47.65 47.66a15.984 15.984 0 0 1 -15.9 4.02 144.324 144.324 0 0 1 -96.81-96.81 16.006 16.006 0 0 1 4.02-15.9l47.66-47.65 15.03-15.03a32.012 32.012 0 0 0 0-45.26l-74.83-74.83a32.08 32.08 0 0 0 -24.45-9.34 31.759 31.759 0 0 0 -23.04 11.82c-4.08 5.09-8.01 10.41-11.66 15.8a.01.01 0 0 0 -.01.01 248.034 248.034 0 0 0 344.47 344.47.01.01 0 0 0 .01-.01c5.39-3.65 10.71-7.58 15.8-11.66a31.759 31.759 0 0 0 11.82-23.04 32.094 32.094 0 0 0 -9.34-24.45zm-338.6-291.12a15.547 15.547 0 0 1 11.42-5.85 16.115 16.115 0 0 1 12.26 4.69l74.83 74.83a15.982 15.982 0 0 1 0 22.62l-9.37 9.38-96.28-96.28c2.3-3.19 4.69-6.33 7.14-9.39zm181.14 376.98a232.054 232.054 0 0 1 -197.35-354.04l94.04 94.04-42 42a31.992 31.992 0 0 0 -8.05 31.78 160.363 160.363 0 0 0 107.58 107.58 31.992 31.992 0 0 0 31.78-8.05l42-42 94.04 94.04a230.809 230.809 0 0 1 -122.04 34.65zm150.83-62.28a15.547 15.547 0 0 1 -5.85 11.42c-3.06 2.45-6.2 4.84-9.39 7.14l-96.28-96.28 9.38-9.37a15.982 15.982 0 0 1 22.62 0l74.83 74.83a16.1 16.1 0 0 1 4.69 12.26z" fill="url(#a)"/><g fill="url(#b)"><path d="m344 256a8 8 0 0 0 16 0 104.118 104.118 0 0 0 -104-104 8 8 0 0 0 0 16 88.1 88.1 0 0 1 88 88z"/><path d="m256 80a8 8 0 0 0 0 16c88.225 0 160 71.775 160 160a8 8 0 0 0 16 0c0-97.047-78.953-176-176-176z"/><path d="m431.362 80.638a246.376 246.376 0 0 0 -175.362-72.638 8 8 0 0 0 0 16 232 232 0 0 1 232 232 8 8 0 0 0 16 0 246.376 246.376 0 0 0 -72.638-175.362z"/><path d="m256 304a48 48 0 1 0 -48-48 48.053 48.053 0 0 0 48 48zm0-80a32 32 0 1 1 -32 32 32.036 32.036 0 0 1 32-32z"/></g></g></svg>