<svg height="512" viewBox="0 0 512 512" width="512" xmlns="http://www.w3.org/2000/svg" xmlns:xlink="http://www.w3.org/1999/xlink"><linearGradient id="a" gradientUnits="userSpaceOnUse" x1="26.062" x2="549.644" y1="485.938" y2="-37.644" data-name="New Gradient Swatch 1"><stop offset="0" stop-color="#003f8a"/><stop offset=".518" stop-color="#00d7df"/><stop offset="1" stop-color="#006df0"/></linearGradient><linearGradient id="c" x1="20.063" x2="543.644" xlink:href="#a" y1="479.938" y2="-43.643"/><linearGradient id="d" x1="116.062" x2="639.644" xlink:href="#a" y1="575.938" y2="52.356"/><g><path d="m431.36 80.64a248 248 0 1 0 -350.72 350.72 248 248 0 1 0 350.72-350.72zm-11.31 339.41a232 232 0 0 1 -328.1-328.1 232 232 0 0 1 328.1 328.1z" fill="url(#a)"/><path d="m256 48c-114.69 0-208 93.31-208 208s93.31 208 208 208 208-93.31 208-208-93.31-208-208-208zm0 400c-105.87 0-192-86.13-192-192s86.13-192 192-192 192 86.13 192 192-86.13 192-192 192z" fill="url(#a)"/><path d="m390.4 219.2-48-64a8.009 8.009 0 0 0 -6.4-3.2h-160a8.009 8.009 0 0 0 -6.4 3.2l-48 64a7.992 7.992 0 0 0 .42 10.11l116.17 130.69h-54.19a8 8 0 0 0 0 16h112a8 8 0 0 0 0-16h-22.19l116.17-130.69a7.992 7.992 0 0 0 .42-10.11zm-114.83-51.2 30 48h-41.57v-24a8 8 0 0 0 -16 0v24h-41.57l30-48zm-95.57 0h37.57l-30 48h-43.57zm-34.18 64h40.98l40.99 92.22zm110.18 116.3-51.69-116.3h43.69v64a8 8 0 0 0 16 0v-64h43.69zm28.21-24.08 40.99-92.22h40.98zm40.22-108.22-30-48h37.57l36 48z" fill="url(#c)"/><path d="m328 360h-8a8 8 0 0 0 0 16h8a8 8 0 0 0 0-16z" fill="url(#d)"/></g></svg>