<?xml version="1.0"?>
<svg xmlns="http://www.w3.org/2000/svg" xmlns:xlink="http://www.w3.org/1999/xlink" width="512" height="512" viewBox="0 0 512 512"><defs><linearGradient id="a" data-name="New Gradient Swatch 1" x1="80.501" y1="582.842" x2="581.525" y2="81.819" gradientUnits="userSpaceOnUse"><stop offset="0" stop-color="#003f8a"/><stop offset="0.518" stop-color="#00d7df"/><stop offset="1" stop-color="#006df0"/></linearGradient><linearGradient id="b" x1="-27.17" y1="475.17" x2="473.853" y2="-25.853" xlink:href="#a"/></defs><g><path d="M416.04,440.04H347.47a24.062,24.062,0,0,0-6.88-17.7l-65.04-70.63a24.064,24.064,0,0,0-17.66-7.75h-.05L144,344.04V328a8,8,0,0,0-8-8H80a8,8,0,0,0-8,8V456a8,8,0,0,0,8,8h56a8,8,0,0,0,8-8V440.04h17.48a8.049,8.049,0,0,1,5.61,2.29l55.68,54.86a23.957,23.957,0,0,0,16.79,6.85H416.04a24.032,24.032,0,0,0,24-24v-16A24.025,24.025,0,0,0,416.04,440.04ZM128,448H88V336h40Zm296.04,32.04a8.011,8.011,0,0,1-8,8H239.56a7.985,7.985,0,0,1-5.58-2.27l-55.66-54.83a23.829,23.829,0,0,0-16.84-6.9H144.04v-64l113.83-.08h.02a8.009,8.009,0,0,1,5.88,2.58l65.15,70.75.23.23a8.026,8.026,0,0,1,1.02,10.08,8.5,8.5,0,0,1-1.02,1.24l-11.31,11.31a8.015,8.015,0,0,1-11.32,0l-50.91-50.91a8,8,0,1,0-11.31,11.31l50.91,50.91a24,24,0,0,0,33.94,0l11.31-11.31a1.141,1.141,0,0,1,.11-.11h75.47a8,8,0,0,1,8,8Z" fill="url(#a)"/><path d="M440,232a8,8,0,0,0,8-8V192a8,8,0,0,0-8-8H371.74A47.8,47.8,0,0,0,384,152V120a47.8,47.8,0,0,0-12.26-32H408a8,8,0,0,0,8-8V16a8,8,0,0,0-8-8H216a8,8,0,0,0-8,8V72H72a8,8,0,0,0-8,8v32a8,8,0,0,0,8,8h8v32H72a8,8,0,0,0-8,8v32a8,8,0,0,0,8,8h68.26A47.8,47.8,0,0,0,128,232v32a48.051,48.051,0,0,0,48,48H440a8,8,0,0,0,8-8V272a8,8,0,0,0-8-8h-8V232ZM368,24h32V72H368Zm-96,0h80V72H272Zm-48,0h32V72H224ZM80,184V168H332a20.02,20.02,0,0,0,20-20V124a20.02,20.02,0,0,0-20-20H80V88H336a32.036,32.036,0,0,1,32,32v32a32.036,32.036,0,0,1-32,32Zm16-32V120H332a4,4,0,0,1,4,4v24a4,4,0,0,1-4,4Zm84,64a20.02,20.02,0,0,0-20,20v24a20.02,20.02,0,0,0,20,20H432v16H176a32.036,32.036,0,0,1-32-32V232a32.036,32.036,0,0,1,32-32H432v16Zm236,16v32H180a4,4,0,0,1-4-4V236a4,4,0,0,1,4-4Z" fill="url(#b)"/></g></svg>
