<svg height="512" viewBox="0 0 512 512" width="512" xmlns="http://www.w3.org/2000/svg" xmlns:xlink="http://www.w3.org/1999/xlink"><linearGradient id="a" gradientUnits="userSpaceOnUse" x1="2.479" x2="512.304" y1="477.521" y2="-32.304" data-name="New Gradient Swatch 1"><stop offset="0" stop-color="#003f8a"/><stop offset=".518" stop-color="#00d7df"/><stop offset="1" stop-color="#006df0"/></linearGradient><linearGradient id="b" x1="-69.521" x2="440.304" xlink:href="#a" y1="405.521" y2="-104.304"/><linearGradient id="c" x1="-33.521" x2="476.304" xlink:href="#a" y1="441.521" y2="-68.304"/><linearGradient id="d" x1="-51.521" x2="458.304" xlink:href="#a" y1="423.521" y2="-86.303"/><linearGradient id="e" x1="10.479" x2="520.304" xlink:href="#a" y1="485.521" y2="-24.304"/><linearGradient id="f" x1="38.479" x2="548.304" xlink:href="#a" y1="513.521" y2="3.696"/><linearGradient id="g" x1="66.479" x2="576.304" xlink:href="#a" y1="541.521" y2="31.696"/><g><path d="m476 40h-440a28.031 28.031 0 0 0 -28 28v312a28.031 28.031 0 0 0 28 28h160.9l-10.67 32h-18.23a8 8 0 0 0 -8 8v16h-56a8 8 0 0 0 0 16h304a8 8 0 0 0 0-16h-56v-16a8 8 0 0 0 -8-8h-18.23l-10.67-32h160.9a28.031 28.031 0 0 0 28-28v-312a28.031 28.031 0 0 0 -28-28zm-140 416v8h-160v-8zm-132.9-16 10.67-32h84.46l10.67 32zm284.9-60a12.01 12.01 0 0 1 -12 12h-440a12.01 12.01 0 0 1 -12-12v-12h464zm0-28h-464v-284a12.01 12.01 0 0 1 12-12h440a12.01 12.01 0 0 1 12 12z" fill="url(#a)"/><path d="m122.343 245.657a8 8 0 0 0 11.314-11.314l-26.344-26.343 26.344-26.343a8 8 0 0 0 -11.314-11.314l-32 32a8 8 0 0 0 0 11.314z" fill="url(#b)"/><path d="m194.343 245.657a8 8 0 0 0 11.314 0l32-32a8 8 0 0 0 0-11.314l-32-32a8 8 0 0 0 -11.314 11.314l26.344 26.343-26.344 26.343a8 8 0 0 0 0 11.314z" fill="url(#c)"/><path d="m149.191 247.491a7.993 7.993 0 0 0 10.3-4.682l24-64a8 8 0 1 0 -14.98-5.618l-24 64a8 8 0 0 0 4.68 10.3z" fill="url(#d)"/><path d="m272 248h32a8 8 0 0 0 0-16h-24v-48h24a8 8 0 0 0 0-16h-32a8 8 0 0 0 -8 8v64a8 8 0 0 0 8 8z" fill="url(#e)"/><path d="m328 232a8 8 0 0 0 0 16h32a8 8 0 0 0 8-8v-32a8 8 0 0 0 -8-8h-24v-16h24a8 8 0 0 0 0-16h-32a8 8 0 0 0 -8 8v32a8 8 0 0 0 8 8h24v16z" fill="url(#f)"/><path d="m384 232a8 8 0 0 0 0 16h32a8 8 0 0 0 8-8v-32a8 8 0 0 0 -8-8h-24v-16h24a8 8 0 0 0 0-16h-32a8 8 0 0 0 -8 8v32a8 8 0 0 0 8 8h24v16z" fill="url(#g)"/></g></svg>